<mxfile host="app.diagrams.net" modified="2020-07-24T10:23:22.521Z" agent="5.0 (Macintosh; Intel Mac OS X 10_15_5) AppleWebKit/537.36 (KHTML, like Gecko) Chrome/83.0.4103.116 Safari/537.36" etag="_4yNEi6sThEZGG_UAKHQ" version="13.5.1" type="github">
  <diagram id="gDmiW0nVC35wxO3jahbQ" name="Page-1">
    <mxGraphModel dx="2066" dy="1105" grid="1" gridSize="10" guides="1" tooltips="1" connect="1" arrows="1" fold="1" page="1" pageScale="1" pageWidth="827" pageHeight="1169" math="0" shadow="0">
      <root>
        <mxCell id="0" />
        <mxCell id="1" parent="0" />
        <mxCell id="DE1FXnLtqm8Qsb4ysKbL-1" value="" style="shape=table;html=1;whiteSpace=wrap;startSize=0;container=1;collapsible=0;childLayout=tableLayout;" vertex="1" parent="1">
          <mxGeometry x="190" y="220" width="340" height="200" as="geometry" />
        </mxCell>
        <mxCell id="DE1FXnLtqm8Qsb4ysKbL-2" value="" style="shape=partialRectangle;html=1;whiteSpace=wrap;collapsible=0;dropTarget=0;pointerEvents=0;fillColor=none;top=0;left=0;bottom=0;right=0;points=[[0,0.5],[1,0.5]];portConstraint=eastwest;" vertex="1" parent="DE1FXnLtqm8Qsb4ysKbL-1">
          <mxGeometry width="340" height="40" as="geometry" />
        </mxCell>
        <mxCell id="DE1FXnLtqm8Qsb4ysKbL-3" value="Process" style="shape=partialRectangle;html=1;whiteSpace=wrap;connectable=0;overflow=hidden;fillColor=none;top=0;left=0;bottom=0;right=0;" vertex="1" parent="DE1FXnLtqm8Qsb4ysKbL-2">
          <mxGeometry width="113" height="40" as="geometry" />
        </mxCell>
        <mxCell id="DE1FXnLtqm8Qsb4ysKbL-4" value="Arrival Time" style="shape=partialRectangle;html=1;whiteSpace=wrap;connectable=0;overflow=hidden;fillColor=none;top=0;left=0;bottom=0;right=0;" vertex="1" parent="DE1FXnLtqm8Qsb4ysKbL-2">
          <mxGeometry x="113" width="114" height="40" as="geometry" />
        </mxCell>
        <mxCell id="DE1FXnLtqm8Qsb4ysKbL-5" value="Burst&lt;br&gt;Time" style="shape=partialRectangle;html=1;whiteSpace=wrap;connectable=0;overflow=hidden;fillColor=none;top=0;left=0;bottom=0;right=0;" vertex="1" parent="DE1FXnLtqm8Qsb4ysKbL-2">
          <mxGeometry x="227" width="113" height="40" as="geometry" />
        </mxCell>
        <mxCell id="DE1FXnLtqm8Qsb4ysKbL-6" value="" style="shape=partialRectangle;html=1;whiteSpace=wrap;collapsible=0;dropTarget=0;pointerEvents=0;fillColor=none;top=0;left=0;bottom=0;right=0;points=[[0,0.5],[1,0.5]];portConstraint=eastwest;" vertex="1" parent="DE1FXnLtqm8Qsb4ysKbL-1">
          <mxGeometry y="40" width="340" height="40" as="geometry" />
        </mxCell>
        <mxCell id="DE1FXnLtqm8Qsb4ysKbL-7" value="P1" style="shape=partialRectangle;html=1;whiteSpace=wrap;connectable=0;overflow=hidden;fillColor=#fff2cc;top=0;left=0;bottom=0;right=0;strokeColor=#d6b656;" vertex="1" parent="DE1FXnLtqm8Qsb4ysKbL-6">
          <mxGeometry width="113" height="40" as="geometry" />
        </mxCell>
        <mxCell id="DE1FXnLtqm8Qsb4ysKbL-8" value="0" style="shape=partialRectangle;html=1;whiteSpace=wrap;connectable=0;overflow=hidden;fillColor=#fff2cc;top=0;left=0;bottom=0;right=0;strokeColor=#d6b656;" vertex="1" parent="DE1FXnLtqm8Qsb4ysKbL-6">
          <mxGeometry x="113" width="114" height="40" as="geometry" />
        </mxCell>
        <mxCell id="DE1FXnLtqm8Qsb4ysKbL-9" value="7" style="shape=partialRectangle;html=1;whiteSpace=wrap;connectable=0;overflow=hidden;fillColor=#fff2cc;top=0;left=0;bottom=0;right=0;strokeColor=#d6b656;" vertex="1" parent="DE1FXnLtqm8Qsb4ysKbL-6">
          <mxGeometry x="227" width="113" height="40" as="geometry" />
        </mxCell>
        <mxCell id="DE1FXnLtqm8Qsb4ysKbL-10" value="" style="shape=partialRectangle;html=1;whiteSpace=wrap;collapsible=0;dropTarget=0;pointerEvents=0;fillColor=none;top=0;left=0;bottom=0;right=0;points=[[0,0.5],[1,0.5]];portConstraint=eastwest;" vertex="1" parent="DE1FXnLtqm8Qsb4ysKbL-1">
          <mxGeometry y="80" width="340" height="40" as="geometry" />
        </mxCell>
        <mxCell id="DE1FXnLtqm8Qsb4ysKbL-11" value="P2" style="shape=partialRectangle;html=1;whiteSpace=wrap;connectable=0;overflow=hidden;fillColor=#f8cecc;top=0;left=0;bottom=0;right=0;strokeColor=#b85450;" vertex="1" parent="DE1FXnLtqm8Qsb4ysKbL-10">
          <mxGeometry width="113" height="40" as="geometry" />
        </mxCell>
        <mxCell id="DE1FXnLtqm8Qsb4ysKbL-12" value="2" style="shape=partialRectangle;html=1;whiteSpace=wrap;connectable=0;overflow=hidden;fillColor=#f8cecc;top=0;left=0;bottom=0;right=0;strokeColor=#b85450;" vertex="1" parent="DE1FXnLtqm8Qsb4ysKbL-10">
          <mxGeometry x="113" width="114" height="40" as="geometry" />
        </mxCell>
        <mxCell id="DE1FXnLtqm8Qsb4ysKbL-13" value="4" style="shape=partialRectangle;html=1;whiteSpace=wrap;connectable=0;overflow=hidden;fillColor=#f8cecc;top=0;left=0;bottom=0;right=0;strokeColor=#b85450;" vertex="1" parent="DE1FXnLtqm8Qsb4ysKbL-10">
          <mxGeometry x="227" width="113" height="40" as="geometry" />
        </mxCell>
        <mxCell id="DE1FXnLtqm8Qsb4ysKbL-14" value="" style="shape=partialRectangle;html=1;whiteSpace=wrap;collapsible=0;dropTarget=0;pointerEvents=0;fillColor=none;top=0;left=0;bottom=0;right=0;points=[[0,0.5],[1,0.5]];portConstraint=eastwest;" vertex="1" parent="DE1FXnLtqm8Qsb4ysKbL-1">
          <mxGeometry y="120" width="340" height="40" as="geometry" />
        </mxCell>
        <mxCell id="DE1FXnLtqm8Qsb4ysKbL-15" value="P3" style="shape=partialRectangle;html=1;whiteSpace=wrap;connectable=0;overflow=hidden;fillColor=#e1d5e7;top=0;left=0;bottom=0;right=0;strokeColor=#9673a6;" vertex="1" parent="DE1FXnLtqm8Qsb4ysKbL-14">
          <mxGeometry width="113" height="40" as="geometry" />
        </mxCell>
        <mxCell id="DE1FXnLtqm8Qsb4ysKbL-16" value="3" style="shape=partialRectangle;html=1;whiteSpace=wrap;connectable=0;overflow=hidden;fillColor=#e1d5e7;top=0;left=0;bottom=0;right=0;strokeColor=#9673a6;" vertex="1" parent="DE1FXnLtqm8Qsb4ysKbL-14">
          <mxGeometry x="113" width="114" height="40" as="geometry" />
        </mxCell>
        <mxCell id="DE1FXnLtqm8Qsb4ysKbL-17" value="2" style="shape=partialRectangle;html=1;whiteSpace=wrap;connectable=0;overflow=hidden;fillColor=#e1d5e7;top=0;left=0;bottom=0;right=0;strokeColor=#9673a6;" vertex="1" parent="DE1FXnLtqm8Qsb4ysKbL-14">
          <mxGeometry x="227" width="113" height="40" as="geometry" />
        </mxCell>
        <mxCell id="DE1FXnLtqm8Qsb4ysKbL-18" value="" style="shape=partialRectangle;html=1;whiteSpace=wrap;collapsible=0;dropTarget=0;pointerEvents=0;fillColor=none;top=0;left=0;bottom=0;right=0;points=[[0,0.5],[1,0.5]];portConstraint=eastwest;" vertex="1" parent="DE1FXnLtqm8Qsb4ysKbL-1">
          <mxGeometry y="160" width="340" height="40" as="geometry" />
        </mxCell>
        <mxCell id="DE1FXnLtqm8Qsb4ysKbL-19" value="P4" style="shape=partialRectangle;html=1;whiteSpace=wrap;connectable=0;overflow=hidden;fillColor=#dae8fc;top=0;left=0;bottom=0;right=0;strokeColor=#6c8ebf;" vertex="1" parent="DE1FXnLtqm8Qsb4ysKbL-18">
          <mxGeometry width="113" height="40" as="geometry" />
        </mxCell>
        <mxCell id="DE1FXnLtqm8Qsb4ysKbL-20" value="9" style="shape=partialRectangle;html=1;whiteSpace=wrap;connectable=0;overflow=hidden;fillColor=#dae8fc;top=0;left=0;bottom=0;right=0;strokeColor=#6c8ebf;" vertex="1" parent="DE1FXnLtqm8Qsb4ysKbL-18">
          <mxGeometry x="113" width="114" height="40" as="geometry" />
        </mxCell>
        <mxCell id="DE1FXnLtqm8Qsb4ysKbL-21" value="1" style="shape=partialRectangle;html=1;whiteSpace=wrap;connectable=0;overflow=hidden;fillColor=#dae8fc;top=0;left=0;bottom=0;right=0;strokeColor=#6c8ebf;" vertex="1" parent="DE1FXnLtqm8Qsb4ysKbL-18">
          <mxGeometry x="227" width="113" height="40" as="geometry" />
        </mxCell>
        <mxCell id="DE1FXnLtqm8Qsb4ysKbL-22" value="" style="shape=table;html=1;whiteSpace=wrap;startSize=0;container=1;collapsible=0;childLayout=tableLayout;" vertex="1" parent="1">
          <mxGeometry x="190" y="480" width="470" height="120" as="geometry" />
        </mxCell>
        <mxCell id="DE1FXnLtqm8Qsb4ysKbL-74" style="shape=partialRectangle;html=1;whiteSpace=wrap;collapsible=0;dropTarget=0;pointerEvents=0;fillColor=none;top=0;left=0;bottom=0;right=0;points=[[0,0.5],[1,0.5]];portConstraint=eastwest;" vertex="1" parent="DE1FXnLtqm8Qsb4ysKbL-22">
          <mxGeometry width="470" height="40" as="geometry" />
        </mxCell>
        <mxCell id="DE1FXnLtqm8Qsb4ysKbL-75" value="P1" style="shape=partialRectangle;html=1;whiteSpace=wrap;connectable=0;overflow=hidden;top=0;left=0;bottom=0;right=0;" vertex="1" parent="DE1FXnLtqm8Qsb4ysKbL-74">
          <mxGeometry width="33" height="40" as="geometry" />
        </mxCell>
        <mxCell id="DE1FXnLtqm8Qsb4ysKbL-76" style="shape=partialRectangle;html=1;whiteSpace=wrap;connectable=0;overflow=hidden;top=0;left=0;bottom=0;right=0;" vertex="1" parent="DE1FXnLtqm8Qsb4ysKbL-74">
          <mxGeometry x="33" width="34" height="40" as="geometry" />
        </mxCell>
        <mxCell id="DE1FXnLtqm8Qsb4ysKbL-77" value="P2" style="shape=partialRectangle;html=1;whiteSpace=wrap;connectable=0;overflow=hidden;top=0;left=0;bottom=0;right=0;" vertex="1" parent="DE1FXnLtqm8Qsb4ysKbL-74">
          <mxGeometry x="67" width="34" height="40" as="geometry" />
        </mxCell>
        <mxCell id="DE1FXnLtqm8Qsb4ysKbL-78" value="P3" style="shape=partialRectangle;html=1;whiteSpace=wrap;connectable=0;overflow=hidden;top=0;left=0;bottom=0;right=0;" vertex="1" parent="DE1FXnLtqm8Qsb4ysKbL-74">
          <mxGeometry x="101" width="33" height="40" as="geometry" />
        </mxCell>
        <mxCell id="DE1FXnLtqm8Qsb4ysKbL-79" style="shape=partialRectangle;html=1;whiteSpace=wrap;connectable=0;overflow=hidden;top=0;left=0;bottom=0;right=0;" vertex="1" parent="DE1FXnLtqm8Qsb4ysKbL-74">
          <mxGeometry x="134" width="34" height="40" as="geometry" />
        </mxCell>
        <mxCell id="DE1FXnLtqm8Qsb4ysKbL-80" value="" style="shape=partialRectangle;html=1;whiteSpace=wrap;connectable=0;overflow=hidden;top=0;left=0;bottom=0;right=0;" vertex="1" parent="DE1FXnLtqm8Qsb4ysKbL-74">
          <mxGeometry x="168" width="34" height="40" as="geometry" />
        </mxCell>
        <mxCell id="DE1FXnLtqm8Qsb4ysKbL-81" style="shape=partialRectangle;html=1;whiteSpace=wrap;connectable=0;overflow=hidden;top=0;left=0;bottom=0;right=0;" vertex="1" parent="DE1FXnLtqm8Qsb4ysKbL-74">
          <mxGeometry x="202" width="33" height="40" as="geometry" />
        </mxCell>
        <mxCell id="DE1FXnLtqm8Qsb4ysKbL-82" style="shape=partialRectangle;html=1;whiteSpace=wrap;connectable=0;overflow=hidden;top=0;left=0;bottom=0;right=0;" vertex="1" parent="DE1FXnLtqm8Qsb4ysKbL-74">
          <mxGeometry x="235" width="33" height="40" as="geometry" />
        </mxCell>
        <mxCell id="DE1FXnLtqm8Qsb4ysKbL-83" style="shape=partialRectangle;html=1;whiteSpace=wrap;connectable=0;overflow=hidden;top=0;left=0;bottom=0;right=0;" vertex="1" parent="DE1FXnLtqm8Qsb4ysKbL-74">
          <mxGeometry x="268" width="34" height="40" as="geometry" />
        </mxCell>
        <mxCell id="DE1FXnLtqm8Qsb4ysKbL-84" value="P4" style="shape=partialRectangle;html=1;whiteSpace=wrap;connectable=0;overflow=hidden;top=0;left=0;bottom=0;right=0;" vertex="1" parent="DE1FXnLtqm8Qsb4ysKbL-74">
          <mxGeometry x="302" width="34" height="40" as="geometry" />
        </mxCell>
        <mxCell id="DE1FXnLtqm8Qsb4ysKbL-85" style="shape=partialRectangle;html=1;whiteSpace=wrap;connectable=0;overflow=hidden;top=0;left=0;bottom=0;right=0;" vertex="1" parent="DE1FXnLtqm8Qsb4ysKbL-74">
          <mxGeometry x="336" width="33" height="40" as="geometry" />
        </mxCell>
        <mxCell id="DE1FXnLtqm8Qsb4ysKbL-86" style="shape=partialRectangle;html=1;whiteSpace=wrap;connectable=0;overflow=hidden;top=0;left=0;bottom=0;right=0;" vertex="1" parent="DE1FXnLtqm8Qsb4ysKbL-74">
          <mxGeometry x="369" width="34" height="40" as="geometry" />
        </mxCell>
        <mxCell id="DE1FXnLtqm8Qsb4ysKbL-87" style="shape=partialRectangle;html=1;whiteSpace=wrap;connectable=0;overflow=hidden;top=0;left=0;bottom=0;right=0;" vertex="1" parent="DE1FXnLtqm8Qsb4ysKbL-74">
          <mxGeometry x="403" width="34" height="40" as="geometry" />
        </mxCell>
        <mxCell id="DE1FXnLtqm8Qsb4ysKbL-88" style="shape=partialRectangle;html=1;whiteSpace=wrap;connectable=0;overflow=hidden;top=0;left=0;bottom=0;right=0;" vertex="1" parent="DE1FXnLtqm8Qsb4ysKbL-74">
          <mxGeometry x="437" width="33" height="40" as="geometry" />
        </mxCell>
        <mxCell id="DE1FXnLtqm8Qsb4ysKbL-23" value="" style="shape=partialRectangle;html=1;whiteSpace=wrap;collapsible=0;dropTarget=0;pointerEvents=0;fillColor=none;top=0;left=0;bottom=0;right=0;points=[[0,0.5],[1,0.5]];portConstraint=eastwest;" vertex="1" parent="DE1FXnLtqm8Qsb4ysKbL-22">
          <mxGeometry y="40" width="470" height="40" as="geometry" />
        </mxCell>
        <mxCell id="DE1FXnLtqm8Qsb4ysKbL-24" value="" style="shape=partialRectangle;html=1;whiteSpace=wrap;connectable=0;overflow=hidden;fillColor=#fff2cc;top=0;left=0;bottom=0;right=0;strokeColor=#d6b656;" vertex="1" parent="DE1FXnLtqm8Qsb4ysKbL-23">
          <mxGeometry width="33" height="40" as="geometry" />
        </mxCell>
        <mxCell id="DE1FXnLtqm8Qsb4ysKbL-25" value="" style="shape=partialRectangle;html=1;whiteSpace=wrap;connectable=0;overflow=hidden;fillColor=#fff2cc;top=0;left=0;bottom=0;right=0;strokeColor=#d6b656;" vertex="1" parent="DE1FXnLtqm8Qsb4ysKbL-23">
          <mxGeometry x="33" width="34" height="40" as="geometry" />
        </mxCell>
        <mxCell id="DE1FXnLtqm8Qsb4ysKbL-26" value="" style="shape=partialRectangle;html=1;whiteSpace=wrap;connectable=0;overflow=hidden;fillColor=#fff2cc;top=0;left=0;bottom=0;right=0;strokeColor=#d6b656;" vertex="1" parent="DE1FXnLtqm8Qsb4ysKbL-23">
          <mxGeometry x="67" width="34" height="40" as="geometry" />
        </mxCell>
        <mxCell id="DE1FXnLtqm8Qsb4ysKbL-27" value="" style="shape=partialRectangle;html=1;whiteSpace=wrap;connectable=0;overflow=hidden;fillColor=#fff2cc;top=0;left=0;bottom=0;right=0;strokeColor=#d6b656;" vertex="1" parent="DE1FXnLtqm8Qsb4ysKbL-23">
          <mxGeometry x="101" width="33" height="40" as="geometry" />
        </mxCell>
        <mxCell id="DE1FXnLtqm8Qsb4ysKbL-28" value="" style="shape=partialRectangle;html=1;whiteSpace=wrap;connectable=0;overflow=hidden;fillColor=#f8cecc;top=0;left=0;bottom=0;right=0;strokeColor=#b85450;" vertex="1" parent="DE1FXnLtqm8Qsb4ysKbL-23">
          <mxGeometry x="134" width="34" height="40" as="geometry" />
        </mxCell>
        <mxCell id="DE1FXnLtqm8Qsb4ysKbL-29" value="" style="shape=partialRectangle;html=1;whiteSpace=wrap;connectable=0;overflow=hidden;fillColor=#f8cecc;top=0;left=0;bottom=0;right=0;strokeColor=#b85450;" vertex="1" parent="DE1FXnLtqm8Qsb4ysKbL-23">
          <mxGeometry x="168" width="34" height="40" as="geometry" />
        </mxCell>
        <mxCell id="DE1FXnLtqm8Qsb4ysKbL-30" value="" style="shape=partialRectangle;html=1;whiteSpace=wrap;connectable=0;overflow=hidden;fillColor=#e1d5e7;top=0;left=0;bottom=0;right=0;strokeColor=#9673a6;" vertex="1" parent="DE1FXnLtqm8Qsb4ysKbL-23">
          <mxGeometry x="202" width="33" height="40" as="geometry" />
        </mxCell>
        <mxCell id="DE1FXnLtqm8Qsb4ysKbL-31" value="" style="shape=partialRectangle;html=1;whiteSpace=wrap;connectable=0;overflow=hidden;fillColor=#e1d5e7;top=0;left=0;bottom=0;right=0;strokeColor=#9673a6;" vertex="1" parent="DE1FXnLtqm8Qsb4ysKbL-23">
          <mxGeometry x="235" width="33" height="40" as="geometry" />
        </mxCell>
        <mxCell id="DE1FXnLtqm8Qsb4ysKbL-32" value="" style="shape=partialRectangle;html=1;whiteSpace=wrap;connectable=0;overflow=hidden;fillColor=#fff2cc;top=0;left=0;bottom=0;right=0;strokeColor=#d6b656;" vertex="1" parent="DE1FXnLtqm8Qsb4ysKbL-23">
          <mxGeometry x="268" width="34" height="40" as="geometry" />
        </mxCell>
        <mxCell id="DE1FXnLtqm8Qsb4ysKbL-33" value="" style="shape=partialRectangle;html=1;whiteSpace=wrap;connectable=0;overflow=hidden;fillColor=#fff2cc;top=0;left=0;bottom=0;right=0;strokeColor=#d6b656;" vertex="1" parent="DE1FXnLtqm8Qsb4ysKbL-23">
          <mxGeometry x="302" width="34" height="40" as="geometry" />
        </mxCell>
        <mxCell id="DE1FXnLtqm8Qsb4ysKbL-34" value="" style="shape=partialRectangle;html=1;whiteSpace=wrap;connectable=0;overflow=hidden;fillColor=#f8cecc;top=0;left=0;bottom=0;right=0;strokeColor=#b85450;" vertex="1" parent="DE1FXnLtqm8Qsb4ysKbL-23">
          <mxGeometry x="336" width="33" height="40" as="geometry" />
        </mxCell>
        <mxCell id="DE1FXnLtqm8Qsb4ysKbL-35" value="" style="shape=partialRectangle;html=1;whiteSpace=wrap;connectable=0;overflow=hidden;fillColor=#f8cecc;top=0;left=0;bottom=0;right=0;strokeColor=#b85450;" vertex="1" parent="DE1FXnLtqm8Qsb4ysKbL-23">
          <mxGeometry x="369" width="34" height="40" as="geometry" />
        </mxCell>
        <mxCell id="DE1FXnLtqm8Qsb4ysKbL-36" value="" style="shape=partialRectangle;html=1;whiteSpace=wrap;connectable=0;overflow=hidden;fillColor=#dae8fc;top=0;left=0;bottom=0;right=0;strokeColor=#6c8ebf;" vertex="1" parent="DE1FXnLtqm8Qsb4ysKbL-23">
          <mxGeometry x="403" width="34" height="40" as="geometry" />
        </mxCell>
        <mxCell id="DE1FXnLtqm8Qsb4ysKbL-37" value="" style="shape=partialRectangle;html=1;whiteSpace=wrap;connectable=0;overflow=hidden;fillColor=#fff2cc;top=0;left=0;bottom=0;right=0;strokeColor=#d6b656;" vertex="1" parent="DE1FXnLtqm8Qsb4ysKbL-23">
          <mxGeometry x="437" width="33" height="40" as="geometry" />
        </mxCell>
        <mxCell id="DE1FXnLtqm8Qsb4ysKbL-38" value="" style="shape=partialRectangle;html=1;whiteSpace=wrap;collapsible=0;dropTarget=0;pointerEvents=0;fillColor=none;top=0;left=0;bottom=0;right=0;points=[[0,0.5],[1,0.5]];portConstraint=eastwest;" vertex="1" parent="DE1FXnLtqm8Qsb4ysKbL-22">
          <mxGeometry y="80" width="470" height="40" as="geometry" />
        </mxCell>
        <mxCell id="DE1FXnLtqm8Qsb4ysKbL-39" value="P1" style="shape=partialRectangle;html=1;whiteSpace=wrap;connectable=0;overflow=hidden;fillColor=none;top=0;left=0;bottom=0;right=0;" vertex="1" parent="DE1FXnLtqm8Qsb4ysKbL-38">
          <mxGeometry width="33" height="40" as="geometry" />
        </mxCell>
        <mxCell id="DE1FXnLtqm8Qsb4ysKbL-40" value="" style="shape=partialRectangle;html=1;whiteSpace=wrap;connectable=0;overflow=hidden;fillColor=none;top=0;left=0;bottom=0;right=0;" vertex="1" parent="DE1FXnLtqm8Qsb4ysKbL-38">
          <mxGeometry x="33" width="34" height="40" as="geometry" />
        </mxCell>
        <mxCell id="DE1FXnLtqm8Qsb4ysKbL-41" value="" style="shape=partialRectangle;html=1;whiteSpace=wrap;connectable=0;overflow=hidden;fillColor=none;top=0;left=0;bottom=0;right=0;" vertex="1" parent="DE1FXnLtqm8Qsb4ysKbL-38">
          <mxGeometry x="67" width="34" height="40" as="geometry" />
        </mxCell>
        <mxCell id="DE1FXnLtqm8Qsb4ysKbL-42" value="" style="shape=partialRectangle;html=1;whiteSpace=wrap;connectable=0;overflow=hidden;fillColor=none;top=0;left=0;bottom=0;right=0;" vertex="1" parent="DE1FXnLtqm8Qsb4ysKbL-38">
          <mxGeometry x="101" width="33" height="40" as="geometry" />
        </mxCell>
        <mxCell id="DE1FXnLtqm8Qsb4ysKbL-43" value="P2" style="shape=partialRectangle;html=1;whiteSpace=wrap;connectable=0;overflow=hidden;fillColor=none;top=0;left=0;bottom=0;right=0;" vertex="1" parent="DE1FXnLtqm8Qsb4ysKbL-38">
          <mxGeometry x="134" width="34" height="40" as="geometry" />
        </mxCell>
        <mxCell id="DE1FXnLtqm8Qsb4ysKbL-44" value="" style="shape=partialRectangle;html=1;whiteSpace=wrap;connectable=0;overflow=hidden;fillColor=none;top=0;left=0;bottom=0;right=0;" vertex="1" parent="DE1FXnLtqm8Qsb4ysKbL-38">
          <mxGeometry x="168" width="34" height="40" as="geometry" />
        </mxCell>
        <mxCell id="DE1FXnLtqm8Qsb4ysKbL-45" value="P3" style="shape=partialRectangle;html=1;whiteSpace=wrap;connectable=0;overflow=hidden;fillColor=none;top=0;left=0;bottom=0;right=0;" vertex="1" parent="DE1FXnLtqm8Qsb4ysKbL-38">
          <mxGeometry x="202" width="33" height="40" as="geometry" />
        </mxCell>
        <mxCell id="DE1FXnLtqm8Qsb4ysKbL-46" value="" style="shape=partialRectangle;html=1;whiteSpace=wrap;connectable=0;overflow=hidden;fillColor=none;top=0;left=0;bottom=0;right=0;" vertex="1" parent="DE1FXnLtqm8Qsb4ysKbL-38">
          <mxGeometry x="235" width="33" height="40" as="geometry" />
        </mxCell>
        <mxCell id="DE1FXnLtqm8Qsb4ysKbL-47" value="P1" style="shape=partialRectangle;html=1;whiteSpace=wrap;connectable=0;overflow=hidden;fillColor=none;top=0;left=0;bottom=0;right=0;" vertex="1" parent="DE1FXnLtqm8Qsb4ysKbL-38">
          <mxGeometry x="268" width="34" height="40" as="geometry" />
        </mxCell>
        <mxCell id="DE1FXnLtqm8Qsb4ysKbL-48" value="" style="shape=partialRectangle;html=1;whiteSpace=wrap;connectable=0;overflow=hidden;fillColor=none;top=0;left=0;bottom=0;right=0;" vertex="1" parent="DE1FXnLtqm8Qsb4ysKbL-38">
          <mxGeometry x="302" width="34" height="40" as="geometry" />
        </mxCell>
        <mxCell id="DE1FXnLtqm8Qsb4ysKbL-49" value="P2" style="shape=partialRectangle;html=1;whiteSpace=wrap;connectable=0;overflow=hidden;fillColor=none;top=0;left=0;bottom=0;right=0;" vertex="1" parent="DE1FXnLtqm8Qsb4ysKbL-38">
          <mxGeometry x="336" width="33" height="40" as="geometry" />
        </mxCell>
        <mxCell id="DE1FXnLtqm8Qsb4ysKbL-50" value="" style="shape=partialRectangle;html=1;whiteSpace=wrap;connectable=0;overflow=hidden;fillColor=none;top=0;left=0;bottom=0;right=0;" vertex="1" parent="DE1FXnLtqm8Qsb4ysKbL-38">
          <mxGeometry x="369" width="34" height="40" as="geometry" />
        </mxCell>
        <mxCell id="DE1FXnLtqm8Qsb4ysKbL-51" value="P4" style="shape=partialRectangle;html=1;whiteSpace=wrap;connectable=0;overflow=hidden;fillColor=none;top=0;left=0;bottom=0;right=0;" vertex="1" parent="DE1FXnLtqm8Qsb4ysKbL-38">
          <mxGeometry x="403" width="34" height="40" as="geometry" />
        </mxCell>
        <mxCell id="DE1FXnLtqm8Qsb4ysKbL-52" value="P1" style="shape=partialRectangle;html=1;whiteSpace=wrap;connectable=0;overflow=hidden;fillColor=none;top=0;left=0;bottom=0;right=0;" vertex="1" parent="DE1FXnLtqm8Qsb4ysKbL-38">
          <mxGeometry x="437" width="33" height="40" as="geometry" />
        </mxCell>
        <mxCell id="DE1FXnLtqm8Qsb4ysKbL-69" value="FIFO" style="text;html=1;align=center;verticalAlign=middle;resizable=0;points=[];autosize=1;" vertex="1" parent="1">
          <mxGeometry x="110" y="630" width="40" height="20" as="geometry" />
        </mxCell>
        <mxCell id="DE1FXnLtqm8Qsb4ysKbL-70" value="Schedule" style="text;html=1;align=center;verticalAlign=middle;resizable=0;points=[];autosize=1;" vertex="1" parent="1">
          <mxGeometry x="105" y="575" width="70" height="20" as="geometry" />
        </mxCell>
        <mxCell id="DE1FXnLtqm8Qsb4ysKbL-71" style="rounded=0;orthogonalLoop=1;jettySize=auto;html=1;" edge="1" parent="1" source="DE1FXnLtqm8Qsb4ysKbL-72">
          <mxGeometry relative="1" as="geometry">
            <mxPoint x="640" y="260" as="targetPoint" />
          </mxGeometry>
        </mxCell>
        <mxCell id="DE1FXnLtqm8Qsb4ysKbL-72" value="" style="shape=curlyBracket;whiteSpace=wrap;html=1;rounded=1;direction=south;" vertex="1" parent="1">
          <mxGeometry x="523" y="450" width="67" height="20" as="geometry" />
        </mxCell>
        <mxCell id="DE1FXnLtqm8Qsb4ysKbL-73" value="&lt;font style=&quot;font-size: 16px&quot;&gt;Time Slice = 2&lt;/font&gt;" style="text;html=1;align=center;verticalAlign=middle;resizable=0;points=[];autosize=1;" vertex="1" parent="1">
          <mxGeometry x="580" y="230" width="120" height="20" as="geometry" />
        </mxCell>
        <mxCell id="DE1FXnLtqm8Qsb4ysKbL-53" value="" style="shape=table;html=1;whiteSpace=wrap;startSize=0;container=1;collapsible=0;childLayout=tableLayout;" vertex="1" parent="1">
          <mxGeometry x="190" y="630" width="470" height="90" as="geometry" />
        </mxCell>
        <mxCell id="DE1FXnLtqm8Qsb4ysKbL-54" value="" style="shape=partialRectangle;html=1;whiteSpace=wrap;collapsible=0;dropTarget=0;pointerEvents=0;fillColor=none;top=0;left=0;bottom=0;right=0;points=[[0,0.5],[1,0.5]];portConstraint=eastwest;" vertex="1" parent="DE1FXnLtqm8Qsb4ysKbL-53">
          <mxGeometry width="470" height="90" as="geometry" />
        </mxCell>
        <mxCell id="DE1FXnLtqm8Qsb4ysKbL-55" value="" style="shape=partialRectangle;html=1;whiteSpace=wrap;connectable=0;overflow=hidden;fillColor=none;top=0;left=0;bottom=0;right=0;" vertex="1" parent="DE1FXnLtqm8Qsb4ysKbL-54">
          <mxGeometry width="34" height="90" as="geometry" />
        </mxCell>
        <mxCell id="DE1FXnLtqm8Qsb4ysKbL-56" value="" style="shape=partialRectangle;html=1;whiteSpace=wrap;connectable=0;overflow=hidden;fillColor=none;top=0;left=0;bottom=0;right=0;" vertex="1" parent="DE1FXnLtqm8Qsb4ysKbL-54">
          <mxGeometry x="34" width="33" height="90" as="geometry" />
        </mxCell>
        <mxCell id="DE1FXnLtqm8Qsb4ysKbL-57" value="P2" style="shape=partialRectangle;html=1;whiteSpace=wrap;connectable=0;overflow=hidden;fillColor=none;top=0;left=0;bottom=0;right=0;" vertex="1" parent="DE1FXnLtqm8Qsb4ysKbL-54">
          <mxGeometry x="67" width="34" height="90" as="geometry" />
        </mxCell>
        <mxCell id="DE1FXnLtqm8Qsb4ysKbL-58" value="P2&lt;br&gt;P3" style="shape=partialRectangle;html=1;whiteSpace=wrap;connectable=0;overflow=hidden;fillColor=none;top=0;left=0;bottom=0;right=0;" vertex="1" parent="DE1FXnLtqm8Qsb4ysKbL-54">
          <mxGeometry x="101" width="33" height="90" as="geometry" />
        </mxCell>
        <mxCell id="DE1FXnLtqm8Qsb4ysKbL-59" value="P3&lt;br&gt;P1" style="shape=partialRectangle;html=1;whiteSpace=wrap;connectable=0;overflow=hidden;fillColor=none;top=0;left=0;bottom=0;right=0;" vertex="1" parent="DE1FXnLtqm8Qsb4ysKbL-54">
          <mxGeometry x="134" width="34" height="90" as="geometry" />
        </mxCell>
        <mxCell id="DE1FXnLtqm8Qsb4ysKbL-60" value="" style="shape=partialRectangle;html=1;whiteSpace=wrap;connectable=0;overflow=hidden;fillColor=none;top=0;left=0;bottom=0;right=0;" vertex="1" parent="DE1FXnLtqm8Qsb4ysKbL-54">
          <mxGeometry x="168" width="33" height="90" as="geometry" />
        </mxCell>
        <mxCell id="DE1FXnLtqm8Qsb4ysKbL-61" value="P1&lt;br&gt;P2" style="shape=partialRectangle;html=1;whiteSpace=wrap;connectable=0;overflow=hidden;fillColor=none;top=0;left=0;bottom=0;right=0;" vertex="1" parent="DE1FXnLtqm8Qsb4ysKbL-54">
          <mxGeometry x="201" width="34" height="90" as="geometry" />
        </mxCell>
        <mxCell id="DE1FXnLtqm8Qsb4ysKbL-62" value="" style="shape=partialRectangle;html=1;whiteSpace=wrap;connectable=0;overflow=hidden;fillColor=none;top=0;left=0;bottom=0;right=0;" vertex="1" parent="DE1FXnLtqm8Qsb4ysKbL-54">
          <mxGeometry x="235" width="34" height="90" as="geometry" />
        </mxCell>
        <mxCell id="DE1FXnLtqm8Qsb4ysKbL-63" value="P2" style="shape=partialRectangle;html=1;whiteSpace=wrap;connectable=0;overflow=hidden;fillColor=none;top=0;left=0;bottom=0;right=0;" vertex="1" parent="DE1FXnLtqm8Qsb4ysKbL-54">
          <mxGeometry x="269" width="33" height="90" as="geometry" />
        </mxCell>
        <mxCell id="DE1FXnLtqm8Qsb4ysKbL-64" value="P2&lt;br&gt;P4" style="shape=partialRectangle;html=1;whiteSpace=wrap;connectable=0;overflow=hidden;fillColor=none;top=0;left=0;bottom=0;right=0;" vertex="1" parent="DE1FXnLtqm8Qsb4ysKbL-54">
          <mxGeometry x="302" width="34" height="90" as="geometry" />
        </mxCell>
        <mxCell id="DE1FXnLtqm8Qsb4ysKbL-65" value="P4&lt;br&gt;P1" style="shape=partialRectangle;html=1;whiteSpace=wrap;connectable=0;overflow=hidden;fillColor=none;top=0;left=0;bottom=0;right=0;" vertex="1" parent="DE1FXnLtqm8Qsb4ysKbL-54">
          <mxGeometry x="336" width="33" height="90" as="geometry" />
        </mxCell>
        <mxCell id="DE1FXnLtqm8Qsb4ysKbL-66" value="" style="shape=partialRectangle;html=1;whiteSpace=wrap;connectable=0;overflow=hidden;fillColor=none;top=0;left=0;bottom=0;right=0;" vertex="1" parent="DE1FXnLtqm8Qsb4ysKbL-54">
          <mxGeometry x="369" width="34" height="90" as="geometry" />
        </mxCell>
        <mxCell id="DE1FXnLtqm8Qsb4ysKbL-67" value="P1" style="shape=partialRectangle;html=1;whiteSpace=wrap;connectable=0;overflow=hidden;fillColor=none;top=0;left=0;bottom=0;right=0;" vertex="1" parent="DE1FXnLtqm8Qsb4ysKbL-54">
          <mxGeometry x="403" width="33" height="90" as="geometry" />
        </mxCell>
        <mxCell id="DE1FXnLtqm8Qsb4ysKbL-68" value="" style="shape=partialRectangle;html=1;whiteSpace=wrap;connectable=0;overflow=hidden;fillColor=none;top=0;left=0;bottom=0;right=0;" vertex="1" parent="DE1FXnLtqm8Qsb4ysKbL-54">
          <mxGeometry x="436" width="34" height="90" as="geometry" />
        </mxCell>
        <mxCell id="DE1FXnLtqm8Qsb4ysKbL-89" value="Arrival" style="text;html=1;align=center;verticalAlign=middle;resizable=0;points=[];autosize=1;" vertex="1" parent="1">
          <mxGeometry x="105" y="480" width="50" height="20" as="geometry" />
        </mxCell>
        <mxCell id="DE1FXnLtqm8Qsb4ysKbL-105" value="time slice" style="text;html=1;align=center;verticalAlign=middle;resizable=0;points=[];autosize=1;" vertex="1" parent="1">
          <mxGeometry x="105" y="530" width="70" height="20" as="geometry" />
        </mxCell>
      </root>
    </mxGraphModel>
  </diagram>
</mxfile>
